<?xml version="1.0" encoding="utf-8"?>
<!-- Generator: Adobe Illustrator 23.0.0, SVG Export Plug-In . SVG Version: 6.00 Build 0)  -->
<svg version="1.1" xmlns="http://www.w3.org/2000/svg" xmlns:xlink="http://www.w3.org/1999/xlink" x="0px" y="0px"
	 viewBox="0 0 1948 1368" style="enable-background:new 0 0 1948 1368;" xml:space="preserve">
<style type="text/css">
	.st0{fill:#009ECD;}
</style>
<g id="Layer_1">
	<g>
		<path class="st0" d="M1772.3,245.8c-41.9-34.4-136.3-105.5-355.3-105.5s-374.49,42.12-458.5,222.5
			c-38.55,82.77-44.88,174.08-44.88,174.08l-0.96,438.79H496.91c0,0,342.84-426.19,368.22-458.49C894.33,480,914.8,402.4,915,355.1
			c0.1-42.2-11-79.8-33.1-112.9c-20-29.8-47.4-53.7-82.1-71.8c-32.5-16.9-66.64-27.4-103.64-30L449.5,416.3l-250.2-276l-93.57,0.1
			l0.01,337h367.72L80.1,950c-25.2,38-39.4,78.4-42.5,121.2c-3,41.2,4.7,79.8,22.9,115.8c18.6,36.6,45.9,65.9,81.9,87.7
			c38.6,23.4,83.5,35.8,134.6,37.1l1051.1,0.2l1.4-756.6c0.6-32.9,19.5-78,90.5-78s91.6,44.6,91.6,75.2
			c0,101.9-115.14,103.9-131.44,103.4l2.84,319.67c0,0,144,10.87,288-66.4S1899.7,751,1899.7,569.5S1812.4,278.8,1772.3,245.8z"/>
		<path class="st0" d="M1613.38,1106.29c-28.37,0-52.67,10.01-72.78,30.03c-20.11,20.11-30.12,44.31-30.12,72.68
			s10.01,52.57,30.12,72.58c20.11,20.11,44.41,30.12,72.78,30.12c28.47,0,52.67-10.01,72.78-30.12
			c13.99-13.8,23.03-29.73,27.3-47.61c1.94-7.87,2.92-16.23,2.92-24.97c0-7.97-0.78-15.55-2.33-22.74h-109.22l-0.12,46.08h50.86
			c-1.75,2.53-4.78,6.59-7.01,8.82c-8.65,8.65-19.05,12.92-31.19,12.92c-12.24,0-22.54-4.28-31.19-12.92
			c-2.23-2.23-4.28-4.66-5.93-7.19c-4.66-7-7-14.96-7-23.9c0-8.84,2.33-16.81,7-23.81c1.65-2.62,3.69-4.96,5.93-7.19
			c8.65-8.65,18.95-13.02,31.19-12.92c12.15-0.1,22.54,4.28,31.19,12.92c0.58,0.49,1.17,1.07,1.65,1.65l41.39-38.58
			c-1.75-2.04-3.5-3.89-5.44-5.83C1666.04,1116.29,1641.85,1106.29,1613.38,1106.29z"/>
		<path class="st0" d="M1832.04,1105.5c-27.5,0.51-51.11,10.63-70.64,30.16c-14.11,14.11-23.21,30.16-27.5,48.25
			c-1.84,7.87-2.76,16.15-2.76,24.84c0,8.89,0.92,17.38,2.86,25.35c4.29,17.89,13.39,33.84,27.4,47.74
			c19.01,19.01,41.71,29.03,68.19,30.16h39.87v-54.69h-22.9c-1.02,0-2.15,0.1-3.27,0.1s-2.25-0.1-3.37-0.1
			c-11.86-0.72-22.18-5.42-30.77-14.01c-2.96-2.86-6.17-7.62-8.21-10.89h68.4v-46.29h-69.16c2.04-3.17,6.11-8.36,8.97-11.22
			c7.77-7.77,16.87-12.37,27.4-13.7h32.92v-55.71H1832.04z"/>
		<path class="st0" d="M1434.93,1106.29c-4.67-0.79-9.44-1.19-14.51-1.19c-4.87,0-9.64,0.4-14.21,1.19
			c-15.11,2.68-28.32,9.74-39.85,21.17c-13.91,14.01-21.37,30.61-22.26,49.99V1312h62.11v-132.87c0.1-3.88,1.49-7.16,4.17-9.84
			c2.88-2.88,6.26-4.27,10.24-4.17c3.88-0.1,7.25,1.29,10.14,4.17c2.58,2.58,3.98,5.66,4.17,9.24c0,0.3,0,0.7,0,0.89
			c0,0.3,0,0.6,0,0.89v6.46h-19.08l-0.13,46.04h19.21V1312h61.81v-135.85c-1.19-18.78-8.65-34.98-22.26-48.69
			C1463.05,1116.13,1449.94,1109.08,1434.93,1106.29z"/>
		<path class="st0" d="M452.6,136.7c-4.6,5.1-9.7,5.1-15.1,0l-83.69-92.45H132.42L448.8,394.1L764.18,44.25H543.82L452.6,136.7z"/>
		<path class="st0" d="M904.2,967.4v-57.5h-41.6c-0.3,0-0.5,0-0.7,0c-0.3,0-0.5,0-0.7,0c-2.4-0.1-4.5-1.1-6.2-2.8
			c-1.5-1.5-2.4-3.2-2.7-5.2v-1c0-0.2,0-0.5,0-0.7s0-0.4,0-0.6c0-0.3,0-0.6,0-0.9V765h-63.6v151.4c1.1,13.3,6.5,24.8,16.2,34.6
			c2.7,2.6,5.5,5,8.5,7.1c8.6,5.9,18.4,9,29.4,9.3H904.2z"/>
		<path class="st0" d="M763.3,765.7h-36.7c-26.9,0.5-49.9,10.4-69.1,29.5c-13.7,13.8-22.7,29.5-26.9,47.2
			c-1.8,7.7-2.7,15.8-2.7,24.3c0,8.7,1,17,2.9,24.9c4.2,17.4,13.1,33,26.7,46.6c18.6,18.6,40.9,28.5,66.8,29.5h39v-53.5h-22.4
			c-1.1,0.1-2.2,0.1-3.3,0.1c-1.1,0-2.1,0-3.2-0.1c-11.7-0.7-21.7-5.3-30.2-13.7c-2.8-2.8-5.1-5.8-7.1-8.9h66.2v-49.2h-66.1
			c1.9-3.1,4.3-6,7-8.7c7.7-7.7,16.6-12.2,26.9-13.5h32.2V765.7z"/>
	</g>
</g>
<g id="Layer_2">
</g>
</svg>
